#ifndef ArduinoTemplate_notSongs_h
#define ArduinoTemplate_notSongs_h

#include "Tone.h"

#define TIME_THIRTYSECOND 1
#define TIME_SIXTEENTH 2
#define TIME_SIXTEENTH_DOT 3
#define TIME_EIGHTH 4
#define TIME_EIGHTH_DOT 6
#define TIME_QUARTER 8
#define TIME_QUARTER_DOT 12
#define TIME_HALF 16
#define TIME_HALF_DOT 24
#define TIME_WHOLE 32

int tetrisMelody1[] = {
	NOTE_E5, NOTE_B4, NOTE_C5, NOTE_D5, NOTE_E5, NOTE_D5, NOTE_C5, NOTE_B4,
	NOTE_A4, NOTE_A4, NOTE_C5, NOTE_E5, NOTE_D5, NOTE_C5,
	NOTE_B4, NOTE_C5, NOTE_D5, NOTE_E5,
	NOTE_C5, NOTE_A4, NOTE_A4,
	0, NOTE_D5, NOTE_F5, NOTE_A5, NOTE_G5, NOTE_F5,
	
	NOTE_E5, NOTE_C5, NOTE_E5, NOTE_D5, NOTE_C5,
	NOTE_B4, NOTE_B4, NOTE_C5, NOTE_D5, NOTE_E5,
	NOTE_C5, NOTE_A4, NOTE_A4, 0
};

int tetrisTempo1[] = {
	TIME_QUARTER, TIME_EIGHTH, TIME_EIGHTH, TIME_EIGHTH, TIME_SIXTEENTH, TIME_SIXTEENTH, TIME_EIGHTH, TIME_EIGHTH,
	TIME_QUARTER, TIME_EIGHTH, TIME_EIGHTH, TIME_QUARTER, TIME_EIGHTH, TIME_EIGHTH,
	TIME_QUARTER_DOT, TIME_EIGHTH, TIME_QUARTER, TIME_QUARTER,
	TIME_QUARTER, TIME_QUARTER, TIME_HALF,
	TIME_EIGHTH, TIME_QUARTER, TIME_EIGHTH, TIME_QUARTER, TIME_EIGHTH, TIME_EIGHTH,
	
	TIME_QUARTER_DOT, TIME_EIGHTH, TIME_QUARTER, TIME_EIGHTH, TIME_EIGHTH,
	TIME_QUARTER, TIME_EIGHTH, TIME_EIGHTH, TIME_QUARTER, TIME_QUARTER,
	TIME_QUARTER, TIME_QUARTER, TIME_QUARTER, TIME_QUARTER
};

int tetrisAmount1 = 8 + 6 + 4 + 3 + 6 + 5 + 5 + 4;


int pacmanIntroMelody1[] = {
	NOTE_B4, NOTE_B5, NOTE_FS4, NOTE_DS4, NOTE_B5, NOTE_FS4, NOTE_DS4,
	NOTE_C5, NOTE_C6, NOTE_G5, NOTE_E5, NOTE_C6, NOTE_G5, NOTE_E5,
	NOTE_B4, NOTE_B5, NOTE_FS4, NOTE_DS4, NOTE_B5, NOTE_FS4, NOTE_DS4,
	NOTE_F5, NOTE_E5, NOTE_F5,
	NOTE_F5, NOTE_FS5, NOTE_G5,
	NOTE_G5, NOTE_GS5, NOTE_A5,
	NOTE_B5
};

int pacmanIntroTempo1[] = {
	TIME_SIXTEENTH, TIME_SIXTEENTH, TIME_SIXTEENTH, TIME_SIXTEENTH, TIME_THIRTYSECOND, TIME_SIXTEENTH_DOT, TIME_EIGHTH,
	TIME_SIXTEENTH, TIME_SIXTEENTH, TIME_SIXTEENTH, TIME_SIXTEENTH, TIME_THIRTYSECOND, TIME_SIXTEENTH_DOT, TIME_EIGHTH,
	TIME_SIXTEENTH, TIME_SIXTEENTH, TIME_SIXTEENTH, TIME_SIXTEENTH, TIME_THIRTYSECOND, TIME_SIXTEENTH_DOT, TIME_EIGHTH,
	TIME_THIRTYSECOND, TIME_THIRTYSECOND, TIME_SIXTEENTH, TIME_THIRTYSECOND, TIME_THIRTYSECOND, TIME_SIXTEENTH, TIME_THIRTYSECOND, TIME_THIRTYSECOND, TIME_SIXTEENTH,
	TIME_EIGHTH
};


int pacmanIntroAmount1 = 32;

//
////Mario main theme melody
//int melody[] = {
//	NOTE_E7, NOTE_E7, 0, NOTE_E7,
//	0, NOTE_C7, NOTE_E7, 0,
//	NOTE_G7, 0, 0,  0,
//	NOTE_G6, 0, 0, 0,
// 
//	NOTE_C7, 0, 0, NOTE_G6,
//	0, 0, NOTE_E6, 0,
//	0, NOTE_A6, 0, NOTE_B6,
//	0, NOTE_AS6, NOTE_A6, 0,
// 
//	NOTE_G6, NOTE_E7, NOTE_G7,
//	NOTE_A7, 0, NOTE_F7, NOTE_G7,
//	0, NOTE_E7, 0, NOTE_C7,
//	NOTE_D7, NOTE_B6, 0, 0,
// 
//	NOTE_C7, 0, 0, NOTE_G6,
//	0, 0, NOTE_E6, 0,
//	0, NOTE_A6, 0, NOTE_B6,
//	0, NOTE_AS6, NOTE_A6, 0,
// 
//	NOTE_G6, NOTE_E7, NOTE_G7,
//	NOTE_A7, 0, NOTE_F7, NOTE_G7,
//	0, NOTE_E7, 0, NOTE_C7,
//	NOTE_D7, NOTE_B6, 0, 0
//};
////Mario main them tempo
//int tempo[] = {
//	12, 12, 12, 12,
//	12, 12, 12, 12,
//	12, 12, 12, 12,
//	12, 12, 12, 12,
// 
//	12, 12, 12, 12,
//	12, 12, 12, 12,
//	12, 12, 12, 12,
//	12, 12, 12, 12,
// 
//	9, 9, 9,
//	12, 12, 12, 12,
//	12, 12, 12, 12,
//	12, 12, 12, 12,
// 
//	12, 12, 12, 12,
//	12, 12, 12, 12,
//	12, 12, 12, 12,
//	12, 12, 12, 12,
// 
//	9, 9, 9,
//	12, 12, 12, 12,
//	12, 12, 12, 12,
//	12, 12, 12, 12,
//};
////Underworld melody
//int underworld_melody[] = {
//	NOTE_C4, NOTE_C5, NOTE_A3, NOTE_A4,
//	NOTE_AS3, NOTE_AS4, 0,
//	0,
//	NOTE_C4, NOTE_C5, NOTE_A3, NOTE_A4,
//	NOTE_AS3, NOTE_AS4, 0,
//	0,
//	NOTE_F3, NOTE_F4, NOTE_D3, NOTE_D4,
//	NOTE_DS3, NOTE_DS4, 0,
//	0,
//	NOTE_F3, NOTE_F4, NOTE_D3, NOTE_D4,
//	NOTE_DS3, NOTE_DS4, 0,
//	0, NOTE_DS4, NOTE_CS4, NOTE_D4,
//	NOTE_CS4, NOTE_DS4,
//	NOTE_DS4, NOTE_GS3,
//	NOTE_G3, NOTE_CS4,
//	NOTE_C4, NOTE_FS4, NOTE_F4, NOTE_E3, NOTE_AS4, NOTE_A4,
//	NOTE_GS4, NOTE_DS4, NOTE_B3,
//	NOTE_AS3, NOTE_A3, NOTE_GS3,
//	0, 0, 0
//};
////Underwolrd tempo
//int underworld_tempo[] = {
//	12, 12, 12, 12,
//	12, 12, 6,
//	3,
//	12, 12, 12, 12,
//	12, 12, 6,
//	3,
//	12, 12, 12, 12,
//	12, 12, 6,
//	3,
//	12, 12, 12, 12,
//	12, 12, 6,
//	6, 18, 18, 18,
//	6, 6,
//	6, 6,
//	6, 6,
//	18, 18, 18, 18, 18, 18,
//	10, 10, 10,
//	10, 10, 10,
//	3, 3, 3
//};

#endif
